<?xml version="1.0" encoding="utf-8"?>
<!-- Generator: Adobe Illustrator 12.0.0, SVG Export Plug-In . SVG Version: 6.00 Build 51448)  -->
<!DOCTYPE svg PUBLIC "-//W3C//DTD SVG 1.1//EN" "http://www.w3.org/Graphics/SVG/1.1/DTD/svg11.dtd" [
	<!ENTITY ns_svg "http://www.w3.org/2000/svg">
	<!ENTITY ns_xlink "http://www.w3.org/1999/xlink">
]>
<svg  version="1.1" id="Layer_1" xmlns="&ns_svg;" xmlns:xlink="&ns_xlink;" width="24.559" height="30.105"
	 viewBox="0 0 24.559 30.105" overflow="visible" enable-background="new 0 0 24.559 30.105" xml:space="preserve">
<path fill="#CC4004" d="M19.539,25.21c-0.243,0-0.441,0.197-0.441,0.441v3.957c0,0.244,0.198,0.441,0.441,0.441
	s0.44-0.197,0.44-0.441v-3.957C19.979,25.408,19.782,25.21,19.539,25.21"/>
<path fill="#CC4004" d="M21.531,7.706c-0.234,0.063-0.373,0.306-0.309,0.541c0.483,1.771,0.455,3.65-0.081,5.432l-2.025,6.731
	c-0.012,0.041-0.018,0.084-0.018,0.127v3.237c0,0.243,0.197,0.44,0.44,0.44s0.44-0.197,0.44-0.44v-3.173l2.006-6.668
	c0.584-1.941,0.614-3.987,0.087-5.919C22.009,7.78,21.767,7.642,21.531,7.706"/>
<path fill="#CC4004" d="M9.093,24.295l-4.382-0.018c-0.538-0.002-0.995-0.389-1.086-0.919l-0.746-4.334
	c-0.036-0.212-0.219-0.366-0.435-0.366H0.881c0.015-1.272,0.377-2.515,1.049-3.597l0.535-0.86c0.124-0.198,0.18-0.428,0.162-0.661
	l-0.201-2.598C2.274,8.998,2.728,7.091,3.733,5.43c0.126-0.208,0.06-0.479-0.148-0.605c-0.208-0.127-0.479-0.06-0.605,0.148
	c-1.102,1.82-1.597,3.908-1.433,6.038l0.201,2.597c0.003,0.046-0.008,0.09-0.031,0.129l-0.535,0.86C0.408,15.841,0,17.273,0,18.738
	c0,0.442,0.358,0.803,0.802,0.803h1.272l0.682,3.968c0.164,0.953,0.984,1.646,1.952,1.65l4.381,0.018
	c0.454,0.002,0.823,0.372,0.823,0.826v3.663c0,0.242,0.196,0.439,0.44,0.439c0.243,0,0.44-0.197,0.44-0.439v-3.663
	C10.793,25.064,10.03,24.299,9.093,24.295"/>
<path fill="#CC4004" d="M12.795,0.558c0.015-0.243-0.17-0.452-0.412-0.469c-0.238-0.015-0.476-0.021-0.705-0.021
	c-2.854,0-5.595,1.211-7.517,3.324c-0.164,0.18-0.15,0.459,0.029,0.623C4.275,4.09,4.382,4.128,4.487,4.128
	c0.12,0,0.239-0.048,0.326-0.144c1.755-1.929,4.257-3.036,6.864-3.036c0.212,0,0.43,0.007,0.648,0.021
	C12.569,0.985,12.778,0.8,12.795,0.558"/>
<path fill="#CC4004" d="M17.329,14.853c0,0.351-0.286,0.637-0.638,0.637s-0.637-0.286-0.637-0.637V14.69h1.274V14.853z
	 M14.31,12.906h4.763c-0.106,0.514-0.563,0.902-1.108,0.902h-2.545C14.873,13.808,14.417,13.419,14.31,12.906 M14.287,11.136h4.809
	v0.888h-4.809V11.136z M19.964,12.906h0.129c0.243,0,0.44-0.197,0.44-0.441c0-0.242-0.197-0.439-0.44-0.439h-0.116v-0.897
	c0-0.358-0.217-0.667-0.525-0.801V8.978c0-0.278,0.121-0.545,0.336-0.731c1.021-0.894,1.608-2.185,1.608-3.542
	c0-0.85-0.229-1.684-0.666-2.413c-0.125-0.208-0.396-0.275-0.604-0.15s-0.276,0.395-0.152,0.604c0.355,0.591,0.542,1.27,0.542,1.96
	c0,1.103-0.477,2.151-1.309,2.878c-0.405,0.354-0.638,0.863-0.638,1.396v1.276h-3.755V8.979c0-0.532-0.234-1.042-0.644-1.401
	c-0.841-0.739-1.315-1.804-1.301-2.922c0.012-0.989,0.405-1.924,1.107-2.635c0.703-0.71,1.634-1.115,2.622-1.139
	c0.792-0.019,1.558,0.203,2.213,0.642c0.202,0.135,0.477,0.081,0.611-0.121c0.135-0.203,0.081-0.476-0.121-0.612
	c-0.808-0.539-1.75-0.812-2.724-0.789c-1.218,0.029-2.363,0.526-3.228,1.399c-0.864,0.874-1.348,2.026-1.364,3.244
	c-0.017,1.376,0.567,2.686,1.603,3.595c0.218,0.192,0.344,0.461,0.344,0.739v1.348c-0.31,0.134-0.526,0.442-0.526,0.801v0.897
	h-0.157c-0.243,0-0.441,0.197-0.441,0.439c0,0.244,0.198,0.441,0.441,0.441h0.17c0.104,0.922,0.835,1.656,1.754,1.768v0.18
	c0,0.837,0.681,1.518,1.519,1.518c0.837,0,1.519-0.681,1.519-1.518v-0.18C19.129,14.562,19.858,13.828,19.964,12.906z"/>
<path fill="#CC4004" d="M23.462,4.298c0.061,0,0.121-0.012,0.18-0.039l0.656-0.294c0.222-0.099,0.322-0.36,0.222-0.582
	c-0.099-0.222-0.359-0.322-0.581-0.222l-0.657,0.294c-0.223,0.1-0.321,0.359-0.221,0.583C23.133,4.202,23.294,4.298,23.462,4.298"/>
<path fill="#CC4004" d="M24.299,6.874L23.643,6.58c-0.222-0.1-0.483-0.001-0.583,0.221c-0.099,0.224,0,0.483,0.222,0.583
	l0.657,0.294c0.058,0.026,0.119,0.039,0.179,0.039c0.169,0,0.33-0.097,0.403-0.261C24.619,7.234,24.521,6.972,24.299,6.874"/>
<path fill="#CC4004" d="M8.878,3.965l0.656,0.294c0.059,0.027,0.12,0.039,0.18,0.039c0.169,0,0.33-0.097,0.403-0.26
	c0.099-0.224,0-0.483-0.222-0.583L9.238,3.162c-0.223-0.101-0.482,0-0.582,0.222S8.656,3.866,8.878,3.965"/>
<path fill="#CC4004" d="M8.656,7.456C8.729,7.62,8.891,7.716,9.059,7.716c0.061,0,0.122-0.013,0.18-0.038l0.657-0.294
	c0.222-0.101,0.321-0.361,0.222-0.584c-0.1-0.222-0.361-0.32-0.583-0.222L8.878,6.874C8.656,6.973,8.557,7.234,8.656,7.456"/>
</svg>
