<?xml version="1.0" encoding="utf-8"?>
<!-- Generator: Adobe Illustrator 12.0.0, SVG Export Plug-In . SVG Version: 6.00 Build 51448)  -->
<!DOCTYPE svg PUBLIC "-//W3C//DTD SVG 1.1//EN" "http://www.w3.org/Graphics/SVG/1.1/DTD/svg11.dtd" [
	<!ENTITY ns_svg "http://www.w3.org/2000/svg">
	<!ENTITY ns_xlink "http://www.w3.org/1999/xlink">
]>
<svg  version="1.1" id="Layer_1" xmlns="&ns_svg;" xmlns:xlink="&ns_xlink;" width="30.038" height="26.733"
	 viewBox="0 0 30.038 26.733" overflow="visible" enable-background="new 0 0 30.038 26.733" xml:space="preserve">
<g>
	<path fill="#CC4004" d="M18.318,15.36c-0.107,0.303-0.228,0.605-0.355,0.9l0,0c-0.084,0.203,0.008,0.438,0.207,0.53l0,0
		c0.205,0.095,0.449,0.005,0.547-0.201l0,0c0.135-0.313,0.262-0.634,0.377-0.956l0,0v0.001c0.075-0.214-0.035-0.45-0.25-0.524l0,0
		c-0.046-0.019-0.092-0.024-0.139-0.024l0,0C18.535,15.086,18.377,15.19,18.318,15.36 M14.937,25.875
		c-0.783-0.785-1.468-1.664-2.04-2.615l0,0c0.745-0.305,1.456-0.687,2.122-1.139l0,0c0.667,0.452,1.378,0.835,2.123,1.139l0,0
		c-0.57,0.952-1.255,1.83-2.04,2.615l0,0c-0.006,0.009-0.014,0.018-0.023,0.024l0,0c-0.018,0.013-0.039,0.02-0.06,0.02l0,0
		C14.988,25.919,14.955,25.903,14.937,25.875 M0.996,20.129l-0.005-0.006l0.005-0.004c1.051-1.056,2.311-1.878,3.698-2.414l0,0
		c2.655,2.444,6.126,3.808,9.731,3.823l0,0c-0.688,0.452-1.424,0.823-2.198,1.107l0,0c-0.045,0.007-0.09,0.023-0.132,0.045l0,0
		h-0.002c-1.153,0.405-2.346,0.602-3.527,0.602l0,0C5.772,23.282,3.034,22.182,0.996,20.129 M17.945,22.681l-0.002-0.001
		c-0.041-0.022-0.086-0.038-0.134-0.045l0,0c-0.772-0.284-1.51-0.655-2.197-1.106l0,0c3.605-0.015,7.074-1.379,9.726-3.826l0,0
		c1.391,0.535,2.652,1.357,3.704,2.417l0,0l0.006,0.004l-0.006,0.005c-2.037,2.055-4.774,3.154-7.569,3.154l0,0
		C20.289,23.282,19.099,23.087,17.945,22.681 M5.696,6.865C5.773,5.54,6.042,4.233,6.495,2.986l0,0l0.039-0.111l0.111,0.039
		c1.629,0.593,3.13,1.493,4.422,2.651l0,0c-0.47,1.231-0.771,2.522-0.891,3.836l0,0C8.846,8.295,7.328,7.434,5.696,6.865
		 M18.974,5.564c1.291-1.158,2.793-2.058,4.422-2.649l0,0l0.109-0.04l0.04,0.111c0.452,1.247,0.722,2.554,0.798,3.879l0,0
		c-1.631,0.568-3.147,1.428-4.479,2.534l0,0C19.744,8.086,19.445,6.796,18.974,5.564 M14.937,20.453
		c-3.88-3.896-5.063-9.737-3.006-14.841l0,0c0.005-0.014,0.01-0.025,0.015-0.039l0,0c0.688-1.686,1.704-3.215,2.991-4.5l0,0
		l0.082-0.083l0.084,0.083c1.283,1.282,2.298,2.806,2.988,4.484l0,0c0.01,0.033,0.021,0.065,0.038,0.095l0,0
		c0.585,1.459,0.911,3.008,0.968,4.58l0,0c-0.002,0.022-0.002,0.046,0.002,0.069l0,0c0.022,0.735-0.011,1.471-0.104,2.201l0,0
		c-0.027,0.226,0.132,0.431,0.356,0.46l0,0c0.225,0.029,0.43-0.131,0.459-0.355l0,0c0.09-0.72,0.127-1.44,0.11-2.165l0,0
		c2.511-2.291,5.782-3.56,9.179-3.558l0,0h0.117v0.117c-0.011,7.385-5.849,13.437-13.209,13.692l0,0c0.454-0.484,0.875-1,1.26-1.541
		l0,0c0.002-0.004,0.006-0.007,0.008-0.012l0,0c0.128-0.187,0.081-0.441-0.105-0.57l0,0c-0.188-0.129-0.442-0.082-0.571,0.104l0,0
		c-0.447,0.633-0.948,1.228-1.497,1.776l0,0l-0.083,0.083L14.937,20.453z M14.729,0.115L14.355,0.49
		c-1.233,1.233-2.235,2.681-2.956,4.271l0,0c-1.321-1.138-2.837-2.024-4.474-2.62l0,0L6.43,1.96C6.216,1.883,5.98,1.993,5.901,2.207
		l0,0l-0.18,0.498C5.265,3.961,4.983,5.276,4.887,6.61l0,0c-1.284-0.365-2.612-0.55-3.947-0.55l0,0H0.41
		C0.185,6.061,0,6.246,0,6.472l0,0v0.529c-0.002,1.465,0.219,2.922,0.652,4.32l0,0c0.001,0.003,0.001,0.006,0.002,0.009l0,0
		c0.07,0.216,0.301,0.335,0.518,0.265l0,0c0.216-0.068,0.334-0.302,0.265-0.518l0,0C1.027,9.757,0.82,8.384,0.821,7.001l0,0V6.884
		h0.118c3.395-0.002,6.668,1.267,9.179,3.558l0,0c-0.003,0.106-0.008,0.212-0.008,0.319l0,0c-0.009,3.691,1.394,7.244,3.918,9.93
		l0,0c-4.386-0.145-8.437-2.395-10.885-6.047l0,0c-0.006-0.009-0.012-0.017-0.019-0.024l0,0c-0.134-0.186-0.391-0.224-0.573-0.089
		l0,0c-0.184,0.134-0.224,0.392-0.089,0.574l0,0c0.471,0.7,1.002,1.359,1.587,1.969l0,0c-1.359,0.58-2.594,1.416-3.635,2.464l0,0
		L0.12,19.833v0.001c-0.159,0.16-0.159,0.421,0,0.581l0,0l0.295,0.296c3.055,3.081,7.576,4.177,11.697,2.836l0,0
		c0.621,1.063,1.375,2.039,2.243,2.911l0,0c0.366,0.367,0.96,0.367,1.328,0l0,0c0.868-0.872,1.62-1.85,2.243-2.911l0,0
		c4.12,1.341,8.644,0.245,11.696-2.836l0,0l0.294-0.296c0,0,0.002,0,0.002-0.001l0,0c0.159-0.16,0.158-0.42-0.002-0.581l0,0
		l-0.294-0.296c-1.045-1.052-2.282-1.888-3.645-2.466l0,0c2.604-2.7,4.061-6.313,4.06-10.069l0,0V6.473
		c0-0.227-0.185-0.41-0.41-0.41l0,0h-0.527c-1.336,0-2.664,0.185-3.947,0.549l0,0c-0.1-1.334-0.379-2.649-0.836-3.905l0,0
		l-0.182-0.498c0,0,0,0,0-0.001l0,0c-0.076-0.213-0.313-0.323-0.525-0.246l0,0l-0.496,0.182c-1.637,0.595-3.153,1.482-4.475,2.619
		l0,0c-0.724-1.59-1.724-3.037-2.956-4.271l0,0L15.31,0.116C15.228,0.039,15.123,0,15.019,0l0,0C14.914,0,14.811,0.039,14.729,0.115
		"/>
</g>
</svg>
