<?xml version="1.0" encoding="utf-8"?>
<!-- Generator: Adobe Illustrator 27.2.0, SVG Export Plug-In . SVG Version: 6.00 Build 0)  -->
<svg version="1.1" id="Layer_1" xmlns="http://www.w3.org/2000/svg" xmlns:xlink="http://www.w3.org/1999/xlink" x="0px" y="0px"
	 viewBox="0 0 515 140" style="enable-background:new 0 0 515 140;" xml:space="preserve">
<style type="text/css">
	.st0{fill:#213F9A;}
	.st1{fill:#4D7646;}
</style>
<path class="st0" d="M444.6,100.8c-1.3-1.1-2.7-2.2-3.9-3.5c-7.4-7.7-10.7-16.9-9.9-27.5c1.2-15.5,13.6-28.6,28.9-30.8
	c18.5-2.7,35.3,8.7,39.2,27c4,18.8-8,36.9-26.6,40.8c-5.4,1.2-10.9,1-16.2-0.5c-0.7-0.2-1.1-0.4-1.1-1.3c0-10.7,0-21.4,0-32.2
	c0-4.9,3.5-8.9,8.2-9.8c4.8-0.9,9.6,1.7,11.4,6.2c2.6,6.6-2,14-9.7,14c-2,0-3.6,0.9-4.4,2.8s-0.6,3.8,0.7,5.5c0.8,1,1.9,1.6,3.2,1.7
	c8.8,0.8,17.6-5.4,20.1-14.2c2.8-9.8-1.4-19.9-10.2-24.2c-11.8-5.6-25.8,0.3-28.9,13.3c-0.4,1.9-0.6,3.9-0.6,5.8
	c-0.1,8.4,0,16.8,0,25.2c0,0.5,0,1,0,1.4C444.8,100.6,444.7,100.7,444.6,100.8z"/>
<path class="st1" d="M34.4,60.3c3.4,0,6.6,0,9.8,0c3.1,0,6.2,0,9.4,0c0.9,0,1.3-0.2,1.3-1.2c-0.1-2.2-0.1-4.3,0-6.5
	c0-1-0.4-1.3-1.3-1.3c-7.3,0-14.6,0-22,0c-1,0-1.5-0.3-2-1.1c-1.4-2.5-3-4.9-4.6-7.4c0.4,0,0.8-0.1,1.1-0.1c19.5,0,39,0,58.5,0
	c3.4,0,5.5,2.2,5.5,5.6c0,0.9,0,1.8,0,2.8c0.1,1.2-0.5,1.5-1.6,1.5c-4.6,0-9.2,0-13.8,0c-2.5,0-5,0-7.4,0c-1.6,0-1.9,0.3-1.9,1.9
	c0,3.7,0,7.4,0,11c0,1.5,0.4,1.9,1.9,1.9c5.7,0,11.4,0,17,0c1.5,0,1.7,0.2,1.7,1.7c0,2.1,0,4.2,0,6.2c0,1.7-0.1,1.8-1.8,1.8
	c-5.6,0-11.1,0-16.7,0c-1.9,0-2.1,0.2-2.1,2.1c0,7.2,0,14.5,0,21.7c0,1.6-0.1,1.7-1.7,1.7c-1.5,0-3,0-4.6-0.1
	c-2.7-0.2-4.4-2.1-4.4-4.8c0-3.5,0-7,0-10.4c0-1-0.3-1.2-1.2-1.2c-3.4,0-6.9,0-10.3,0c-1.8,0-1.7,0-1.7-1.6
	c-0.1-2.2-0.3-4.5-0.5-6.8c0.5,0,1-0.1,1.4-0.1c3.7,0,7.4,0,11,0c1,0,1.4-0.3,1.4-1.3c-0.1-2.5,0-4.9,0-7.6c-0.6,0-1.1,0-1.5,0
	c-5.1,0-10.2,0-15.4,0c-0.9,0-1.2-0.3-1.4-1.1C35.9,65.3,35.1,62.9,34.4,60.3z"/>
<path class="st0" d="M341.2,65.5c0,2.4,0,4.8,0,7.2c0.1,9.4,0.2,18.7,0.3,28.1c0,2.7,0.2,2.6-2.6,2.6c-1.4,0-2.8,0-4.2-0.2
	c-2.1-0.3-3.7-2-3.8-4.2c0-0.4,0-0.7,0-1.1c0-17.4,0-34.9,0-52.3c0-0.5,0-1,0-1.7c3,0,5.9-0.1,8.7,0.1c0.4,0,1,0.7,1.3,1.2
	c4.4,8.7,8.8,17.4,13.1,26.1c1.6,3.3,3.3,6.6,4.9,9.8c0.2,0.3,0.4,0.7,0.8,1c0-1.8,0-3.5,0-5.3c0-4.6-0.1-9.2-0.1-13.8
	c-0.1-5.8-0.1-11.7-0.2-17.5c0-1.6,0-1.7,1.7-1.7c1.4,0,2.9,0,4.3,0c2.4,0,4.3,1.9,4.5,4.3c0,0.3,0,0.6,0,1c0,17.6,0,35.1,0,52.7
	c0,0.4,0,0.9,0,1.5c-2.1,0-4-0.2-5.9,0c-2.5,0.3-3.7-0.7-4.8-2.9c-5.6-11.3-11.4-22.6-17.2-33.9c-0.2-0.4-0.4-0.7-0.6-1.1
	C341.3,65.5,341.2,65.5,341.2,65.5z"/>
<path class="st0" d="M319.4,73.7c0,4.7,0,9.4,0,14.2c0,9.2-6.4,15.9-15.7,16.3c-3.9,0.2-7.8,0.4-11.7-0.5c-7.1-1.7-12-7.4-12.1-14.7
	c-0.1-10.2-0.2-20.3,0-30.5c0.1-8,5.8-14.2,13.6-15.2c4.4-0.6,8.9-0.7,13.4,0.2c7.6,1.6,12.5,7.7,12.5,15.6
	C319.4,63.9,319.4,68.8,319.4,73.7z M290.5,73.5c0,4.7,0.2,9.4-0.1,14c-0.2,3.7,3.6,7.1,6.8,6.8c1.4-0.1,2.7,0,4.1,0
	c4.6,0,7.4-2.4,7.5-7c0.1-9.2,0.1-18.3,0-27.5c-0.1-4.7-2.8-7.1-7.5-7.1c-1.5,0-3,0-4.4,0c-3.3,0-6.6,3.5-6.5,6.6
	C290.6,64.1,290.5,68.8,290.5,73.5z"/>
<path class="st1" d="M399.8,82c0-3.2,0-6.4,0-9.6c0.4,0,0.8-0.1,1.2-0.1c5,0,10.1,0,15.1,0c3,0,4.9,1.9,4.9,5c0,3.6,0,7.3,0,10.9
	c0,8.2-5.5,14.6-13.6,15.7c-4.9,0.7-9.8,0.8-14.6-0.5c-6.7-1.8-11.2-7.6-11.2-14.6c-0.1-10-0.1-20.1,0-30.1
	c0.1-8,5.4-14.2,13.3-15.3c5.3-0.8,10.8-1,16.1,0.4c5,1.2,8.4,4.5,10.5,9.1c0.6,1.3,0.5,1.6-0.8,2.2c-2.3,1.1-4.6,2.3-6.9,3.4
	c-0.9,0.5-1.6,0.5-2.1-0.6c-0.3-0.6-0.7-1.2-1.1-1.7c-1.5-2.3-3.5-3.6-6.4-3.4c-1.7,0.1-3.4,0-5.2,0c-3.9,0-6.9,2.7-7,6.7
	c-0.1,9.6-0.1,19.1,0,28.7c0,3.4,3.2,6.3,6.6,6.3c1.6,0,3.1,0,4.7,0c4.2,0,7-2.7,7.1-6.9c0-1.4,0-2.8,0-4.2c0-0.9-0.3-1.3-1.2-1.2
	c-2.8,0-5.7,0-8.5,0C400.6,82.1,400.3,82,399.8,82z"/>
<path class="st0" d="M96.7,102.9c-1.4,0-2.8,0-4.2,0c-1.6,0-1.8-0.3-1.3-1.8c4.1-13.5,8.2-27.1,12.4-40.6c1.6-5.4,3.3-10.7,4.9-16.1
	c0.3-1.2,0.9-1.6,2.1-1.5c1.7,0.1,3.4,0.1,5.2,0c1.2-0.1,1.7,0.4,2,1.5c3,10,6.1,20.1,9.1,30.1c2.7,8.8,5.4,17.6,8.1,26.4
	c0.6,1.8,0.4,2.1-1.6,2.1c-2.7,0-5.4,0-8,0c-1,0-1.6-0.3-1.8-1.4c-0.8-2.9-1.7-5.8-2.5-8.7c-0.2-0.9-0.6-1.2-1.5-1.2
	c-4.3,0-8.6,0-12.9,0c-0.9,0-1.3,0.4-1.6,1.2c-0.8,3-1.7,5.9-2.5,8.9c-0.2,0.9-0.7,1.2-1.5,1.2C99.6,102.9,98.2,102.9,96.7,102.9
	L96.7,102.9z M113.4,62.5c-0.1,0-0.2,0-0.3,0c-0.1,0.1-0.2,0.3-0.2,0.4c-1.4,5.8-2.8,11.5-4.2,17.3c-0.3,1.1,0.1,1.4,1.2,1.4
	c2.1,0,4.2,0,6.3,0c1.3,0,1.5-0.4,1.2-1.6c-1.2-5-2.4-9.9-3.6-14.9C113.7,64.3,113.6,63.4,113.4,62.5z"/>
<path class="st0" d="M155,103.7c-3,0.1-5.9,0.1-8.8-0.9c-4.6-1.7-7.5-5-9.5-9.3c-0.4-0.9-0.2-1.5,0.8-2c2.4-1.1,4.8-2.3,7.2-3.5
	c0.9-0.5,1.5-0.4,1.9,0.7c0.8,2,1.9,4,4.1,4.7c3,1,6.1,1.1,9-0.1c2.5-1,3.8-3.1,4.1-5.8c0.2-2.7-0.8-4.9-3.2-6.2
	c-3-1.7-6.2-3.2-9.2-4.9c-2.4-1.3-4.7-2.7-6.9-4.2c-4.4-3.1-6.6-7.5-6.7-12.9c-0.1-5,1.3-9.4,5.1-12.9c2.8-2.6,6.2-3.9,9.9-4.3
	c4.1-0.4,8.2-0.4,12,1.3c4,1.7,6.8,4.7,8.7,8.5c0.6,1.3,0.5,1.6-0.8,2.2c-2.4,1.2-4.8,2.3-7.2,3.6c-0.9,0.4-1.3,0.3-1.8-0.5
	c-0.9-1.3-1.9-2.6-2.9-3.8c-1.6-2-6.8-1.8-8.7-0.7c-2.6,1.5-4.1,4.5-3.4,7.3c0.4,1.7,1.5,2.9,2.9,3.7c2.2,1.2,4.5,2.4,6.8,3.4
	c3.9,1.8,7.6,3.7,10.8,6.6c3.5,3.2,5.2,7.2,5.4,11.9c0.1,3-0.1,5.9-1.3,8.7c-2.7,6.1-7.7,8.8-14,9.5
	C157.9,103.8,156.4,103.7,155,103.7z"/>
<path class="st0" d="M234,73.6c0-4.6,0-9.2,0-13.8c0-9.7,6.5-16.5,16.1-16.7c4-0.1,8-0.5,11.9,0.7c4.8,1.5,8.2,4.7,10.4,9.1
	c0.7,1.3,0.5,1.6-0.8,2.2c-2.3,1.1-4.7,2.3-7,3.4c-0.9,0.5-1.6,0.5-2-0.6c-0.3-0.7-0.7-1.2-1.1-1.8c-1.5-2.3-3.5-3.6-6.3-3.3
	c-1.3,0.1-2.6,0-3.8,0c-3.7,0.1-6.7,3-6.7,6.7c0,9.4,0,18.8,0,28.2c0,3.8,3,6.7,6.8,6.7c1.5,0,3,0,4.6,0c1.9,0.1,3.4-0.7,4.6-2.2
	c0.7-1,1.3-2,1.9-3c0.5-1,1.1-1.3,2.2-0.7c2.2,1.2,4.5,2.3,6.7,3.4c1.5,0.7,1.7,1.1,0.9,2.6c-2.4,4.7-5.8,8.3-11.2,9.3
	c-5.2,1-10.5,1.1-15.7-0.3c-7-1.9-11.4-7.8-11.4-15.2C234,83.3,234,78.5,234,73.6z"/>
<path class="st0" d="M201.2,77.6c0,7.7,0,15.4,0,23c0,2-0.2,2.2-2.2,2.2c-1.4,0-2.9,0-4.3-0.1c-2.6-0.3-4.3-2.1-4.4-4.8
	c0-2.3,0-4.6,0-7c0-12.1,0-24.2,0-36.4c0-1.8-0.1-1.9-1.9-1.9c-2.9,0-5.8,0-8.8,0c-1.4,0-1.6-0.2-1.6-1.6c0-2.3,0-4.6,0-7
	c0-1,0.4-1.4,1.4-1.4c9.7,0,19.4,0,29.1,0c2.8,0,4.8,2,4.9,4.9c0,1.2,0,2.4,0,3.6c0,1.1-0.5,1.5-1.5,1.5c-3,0-6,0-9,0
	c-1.6,0-1.8,0.1-1.8,1.8C201.2,62.2,201.2,69.9,201.2,77.6z"/>
</svg>
